<svg xmlns="http://www.w3.org/2000/svg" style="display:none">

  <!-- Usuario / perfil -->
  <symbol id="icon-user" viewBox="0 0 640 640">
    <path fill="currentColor" d="M337.3 51C325.9 48.7 314.2 48.7 302.8 51L115.3 88.5C104.1 90.7 96 100.6 96 112C96 122.3 102.5 131.3 112 134.6L112 208L96.3 286.6C96.1 287.5 96 288.5 96 289.5C96 297.5 102.5 304.1 110.6 304.1L145.5 304.1C153.5 304.1 160.1 297.6 160.1 289.5C160.1 288.5 160 287.6 159.8 286.6L144 208L144 141.3L192 150.9L192 208C192 278.7 249.3 336 320 336C390.7 336 448 278.7 448 208L448 150.9L524.7 135.6C535.9 133.3 544 123.4 544 112C544 100.6 535.9 90.7 524.7 88.5L337.3 51zM320 288C275.8 288 240 252.2 240 208L400 208C400 252.2 364.2 288 320 288zM216.1 384.1C154.7 412.3 112 474.3 112 546.3C112 562.7 125.3 576 141.7 576L296 576L296 430L238.6 387C232.1 382.1 223.4 380.8 216 384.2zM344 576L498.3 576C514.7 576 528 562.7 528 546.3C528 474.3 485.3 412.3 423.9 384.2C416.5 380.8 407.8 382.1 401.3 387L343.9 430L343.9 576z"/>
  </symbol>

  <!-- Inicio / casa -->
  <symbol id="icon-home" viewBox="0 0 640 640">
    <path fill="currentColor" d="M32 256C32 220.7 60.7 192 96 192L160 192L287.9 76.9C306.2 60.5 333.9 60.5 352.1 76.9L480 192L544 192C579.3 192 608 220.7 608 256L608 512C608 547.3 579.3 576 544 576L96 576C60.7 576 32 547.3 32 512L32 256zM256 440L256 528L384 528L384 440C384 417.9 366.1 400 344 400L296 400C273.9 400 256 417.9 256 440zM144 448C152.8 448 160 440.8 160 432L160 400C160 391.2 152.8 384 144 384L112 384C103.2 384 96 391.2 96 400L96 432C96 440.8 103.2 448 112 448L144 448zM160 304L160 272C160 263.2 152.8 256 144 256L112 256C103.2 256 96 263.2 96 272L96 304C96 312.8 103.2 320 112 320L144 320C152.8 320 160 312.8 160 304zM528 448C536.8 448 544 440.8 544 432L544 400C544 391.2 536.8 384 528 384L496 384C487.2 384 480 391.2 480 400L480 432C480 440.8 487.2 448 496 448L528 448zM544 304L544 272C544 263.2 536.8 256 528 256L496 256C487.2 256 480 263.2 480 272L480 304C480 312.8 487.2 320 496 320L528 320C536.8 320 544 312.8 544 304zM320 320C355.3 320 384 291.3 384 256C384 220.7 355.3 192 320 192C284.7 192 256 220.7 256 256C256 291.3 284.7 320 320 320z"/>
  </symbol>

  <!-- Edificio / empresa -->
  <symbol id="icon-building" viewBox="0 0 640 640">
    <path fill="currentColor" d="M192 64C156.7 64 128 92.7 128 128L128 512C128 547.3 156.7 576 192 576L448 576C483.3 576 512 547.3 512 512L512 128C512 92.7 483.3 64 448 64L192 64zM304 416L336 416C353.7 416 368 430.3 368 448L368 528L272 528L272 448C272 430.3 286.3 416 304 416zM224 176C224 167.2 231.2 160 240 160L272 160C280.8 160 288 167.2 288 176L288 208C288 216.8 280.8 224 272 224L240 224C231.2 224 224 216.8 224 208L224 176zM368 160L400 160C408.8 160 416 167.2 416 176L416 208C416 216.8 408.8 224 400 224L368 224C359.2 224 352 216.8 352 208L352 176C352 167.2 359.2 160 368 160zM224 304C224 295.2 231.2 288 240 288L272 288C280.8 288 288 295.2 288 304L288 336C288 344.8 280.8 352 272 352L240 352C231.2 352 224 344.8 224 336L224 304zM368 288L400 288C408.8 288 416 295.2 416 304L416 336C416 344.8 408.8 352 400 352L368 352C359.2 352 352 344.8 352 336L352 304C352 295.2 359.2 288 368 288z"/>
  </symbol>

  <!-- Usuario alternativo -->
  <symbol id="icon-user2" viewBox="0 0 640 640">
    <path fill="currentColor" d="M320 312C253.7 312 200 258.3 200 192C200 125.7 253.7 72 320 72C386.3 72 440 125.7 440 192C440 258.3 386.3 312 320 312zM289.5 368L350.5 368C360.2 368 368 375.8 368 385.5C368 389.7 366.5 393.7 363.8 396.9L336.4 428.9L367.4 544L368 544L402.6 405.5C404.8 396.8 413.7 391.5 422.1 394.7C484 418.3 528 478.3 528 548.5C528 563.6 515.7 575.9 500.6 575.9L139.4 576C124.3 576 112 563.7 112 548.6C112 478.4 156 418.4 217.9 394.8C226.3 391.6 235.2 396.9 237.4 405.6L272 544.1L272.6 544.1L303.6 429L276.2 397C273.5 393.8 272 389.8 272 385.6C272 375.9 279.8 368.1 289.5 368.1z"/>
  </symbol>

  <!-- Información -->
  <symbol id="icon-info" viewBox="0 0 640 640">
    <path fill="currentColor" d="M320 576C461.4 576 576 461.4 576 320C576 178.6 461.4 64 320 64C178.6 64 64 178.6 64 320C64 461.4 178.6 576 320 576zM288 224C288 206.3 302.3 192 320 192C337.7 192 352 206.3 352 224C352 241.7 337.7 256 320 256C302.3 256 288 241.7 288 224zM280 288L328 288C341.3 288 352 298.7 352 312L352 400L360 400C373.3 400 384 410.7 384 424C384 437.3 373.3 448 360 448L280 448C266.7 448 256 437.3 256 424C256 410.7 266.7 400 280 400L304 400L304 336L280 336C266.7 336 256 325.3 256 312C256 298.7 266.7 288 280 288z"/>
  </symbol>

  <!-- Candado -->
  <symbol id="icon-lock" viewBox="0 0 640 640">
    <path fill="currentColor" d="M256 160L256 224L384 224L384 160C384 124.7 355.3 96 320 96C284.7 96 256 124.7 256 160zM192 224L192 160C192 89.3 249.3 32 320 32C390.7 32 448 89.3 448 160L448 224C483.3 224 512 252.7 512 288L512 512C512 547.3 483.3 576 448 576L192 576C156.7 576 128 547.3 128 512L128 288C128 252.7 156.7 224 192 224z"/>
  </symbol>

  <!-- Globo -->
  <symbol id="icon-globe" viewBox="0 0 640 640">
    <path fill="currentColor" d="M415.9 344L225 344C227.9 408.5 242.2 467.9 262.5 511.4C273.9 535.9 286.2 553.2 297.6 563.8C308.8 574.3 316.5 576 320.5 576C324.5 576 332.2 574.3 343.4 563.8C354.8 553.2 367.1 535.8 378.5 511.4C398.8 467.9 413.1 408.5 416 344zM224.9 296L415.8 296C413 231.5 398.7 172.1 378.4 128.6C367 104.2 354.7 86.8 343.3 76.2C332.1 65.7 324.4 64 320.4 64C316.4 64 308.7 65.7 297.5 76.2C286.1 86.8 273.8 104.2 262.4 128.6C242.1 172.1 227.8 231.5 224.9 296zM176.9 296C180.4 210.4 202.5 130.9 234.8 78.7C142.7 111.3 74.9 195.2 65.5 296L176.9 296zM65.5 344C74.9 444.8 142.7 528.7 234.8 561.3C202.5 509.1 180.4 429.6 176.9 344L65.5 344zM463.9 344C460.4 429.6 438.3 509.1 406 561.3C498.1 528.6 565.9 444.8 575.3 344L463.9 344zM575.3 296C565.9 195.2 498.1 111.3 406 78.7C438.3 130.9 460.4 210.4 463.9 296L575.3 296z"/>
  </symbol>

  <!-- Maletín -->
  <symbol id="icon-briefcase" viewBox="0 0 640 640">
    <path fill="currentColor" d="M264 112L376 112C380.4 112 384 115.6 384 120L384 160L256 160L256 120C256 115.6 259.6 112 264 112zM208 120L208 160L128 160C92.7 160 64 188.7 64 224L64 320L576 320L576 224C576 188.7 547.3 160 512 160L432 160L432 120C432 89.1 406.9 64 376 64L264 64C233.1 64 208 89.1 208 120zM576 368L384 368L384 384C384 401.7 369.7 416 352 416L288 416C270.3 416 256 401.7 256 384L256 368L64 368L64 480C64 515.3 92.7 544 128 544L512 544C547.3 544 576 515.3 576 480L576 368z"/>
  </symbol>

  <!-- Cohete -->
  <symbol id="icon-rocket" viewBox="0 0 640 640">
    <path fill="currentColor" d="M192 384L88.5 384C63.6 384 48.3 356.9 61.1 335.5L114 247.3C122.7 232.8 138.3 224 155.2 224L250.2 224C326.3 95.1 439.8 88.6 515.7 99.7C528.5 101.6 538.5 111.6 540.3 124.3C551.4 200.2 544.9 313.7 416 389.8L416 484.8C416 501.7 407.2 517.3 392.7 526L304.5 578.9C283.2 591.7 256 576.3 256 551.5L256 448C256 412.7 227.3 384 192 384zM464 224C464 197.5 442.5 176 416 176C389.5 176 368 197.5 368 224C368 250.5 389.5 272 416 272C442.5 272 464 250.5 464 224z"/>
  </symbol>

  <!-- Documento -->
  <symbol id="icon-document" viewBox="0 0 640 640">
    <path fill="currentColor" d="M480 576L192 576C139 576 96 533 96 480L96 160C96 107 139 64 192 64L496 64C522.5 64 544 85.5 544 112L544 400C544 420.9 530.6 438.7 512 445.3L512 512C529.7 512 544 526.3 544 544C544 561.7 529.7 576 512 576L480 576z"/>
  </symbol>

  <!-- Salir -->
  <symbol id="icon-exit-1" viewBox="0 0 640 640">
    <path fill="currentColor" d="M224 160C241.7 160 256 145.7 256 128C256 110.3 241.7 96 224 96L160 96C107 96 64 139 64 192L64 448C64 501 107 544 160 544L224 544C241.7 544 256 529.7 256 512C256 494.3 241.7 480 224 480L160 480C142.3 480 128 465.7 128 448L128 192C128 174.3 142.3 160 160 160L224 160zM566.6 342.6C579.1 330.1 579.1 309.8 566.6 297.3L438.6 169.3C426.1 156.8 405.8 156.8 393.3 169.3C380.8 181.8 380.8 202.1 393.3 214.6L466.7 288L256 288C238.3 288 224 302.3 224 320C224 337.7 238.3 352 256 352L466.7 352L393.3 425.4C380.8 437.9 380.8 458.2 393.3 470.7C405.8 483.2 426.1 483.2 438.6 470.7L566.6 342.7z"/>
  </symbol>

  <!-- Documento alternativo -->
  <symbol id="icon-file-alt" viewBox="0 0 640 640">
    <path fill="currentColor" d="M128 128C128 92.7 156.7 64 192 64L341.5 64C358.5 64 374.8 70.7 386.8 82.7L493.3 189.3C505.3 201.3 512 217.6 512 234.6L512 512C512 547.3 483.3 576 448 576L192 576C156.7 576 128 547.3 128 512L128 128z"/>
  </symbol>

  <!-- Usuario alternativo -->
  <symbol id="icon-user-alt" viewBox="0 0 640 640">
    <path fill="currentColor" d="M320 312C386.3 312 440 258.3 440 192C440 125.7 386.3 72 320 72C253.7 72 200 125.7 200 192C200 258.3 253.7 312 320 312zM290.3 368C191.8 368 112 447.8 112 546.3C112 562.7 125.3 576 141.7 576L498.3 576C514.7 576 528 562.7 528 546.3C528 447.8 448.2 368 349.7 368L290.3 368z"/>
  </symbol>

  <!-- Ajustes -->
  <symbol id="icon-settings" viewBox="0 0 640 640">
    <path fill="currentColor" d="M259.1 73.5C262.1 58.7 275.2 48 290.4 48L350.2 48C365.4 48 378.5 58.7 381.5 73.5L396 143.5C410.1 149.5 423.3 157.2 435.3 166.3L503.1 143.8C517.5 139 533.3 145 540.9 158.2L570.8 210C578.4 223.2 575.7 239.8 564.3 249.9L511 297.3C511.9 304.7 512.3 312.3 512.3 320C512.3 327.7 511.8 335.3 511 342.7L564.4 390.2C575.8 400.3 578.4 417 570.9 430.1L541 481.9C533.4 495 517.6 501.1 503.2 496.3L435.4 473.8C423.3 482.9 410.1 490.5 396.1 496.6L381.7 566.5C378.6 581.4 365.5 592 350.4 592L290.6 592C275.4 592 262.3 581.3 259.3 566.5L244.9 496.6C230.8 490.6 217.7 482.9 205.6 473.8L137.5 496.3C123.1 501.1 107.3 495.1 99.7 481.9L69.8 430.1C62.2 416.9 64.9 400.3 76.3 390.2L129.7 342.7C128.8 335.3 128.4 327.7 128.4 320C128.4 312.3 128.9 304.7 129.7 297.3L76.3 249.8C64.9 239.7 62.3 223 69.8 209.9L99.7 158.1C107.3 144.9 123.1 138.9 137.5 143.7L205.3 166.2C217.4 157.1 230.6 149.5 244.6 143.4L259.1 73.5zM320.3 400C364.5 399.8 400.2 363.9 400 319.7C399.8 275.5 363.9 239.8 319.7 240C275.5 240.2 239.8 276.1 240 320.3C240.2 364.5 276.1 400.2 320.3 400z"/>
  </symbol>

  <!-- Advertencia -->
  <symbol id="icon-warning" viewBox="0 0 640 640">
    <path fill="currentColor" d="M320 64C334.7 64 348.2 72.1 355.2 85L571.2 485C577.9 497.4 577.6 512.4 570.4 524.5C563.2 536.6 550.1 544 536 544L104 544C89.9 544 76.8 536.6 69.6 524.5C62.4 512.4 62.1 497.4 68.8 485L284.8 85C291.8 72.1 305.3 64 320 64zM320 416C302.3 416 288 430.3 288 448C288 465.7 302.3 480 320 480C337.7 480 352 465.7 352 448C352 430.3 337.7 416 320 416zM320 224C301.8 224 287.3 239.5 288.6 257.7L296 361.7C296.9 374.2 307.4 384 319.9 384C332.5 384 342.9 374.3 343.8 361.7L351.2 257.7C352.5 239.5 338.1 224 319.8 224z"/>
  </symbol>
</svg>