<svg xmlns="http://www.w3.org/2000/svg" style="display:none">

  <!-- ================ -->
  <!-- ROLES / USUARIOS -->
  <!-- ================ -->
  <symbol id="icon-student" viewBox="0 0 640 640">
    <path fill="currentColor" d="M337.3 51C325.9 48.7 314.2 48.7 302.8 51L115.3 88.5C104.1 90.7 96 100.6 96 112C96 122.3 102.5 131.3 112 134.6L112 208L96.3 286.6C96.1 287.5 96 288.5 96 289.5C96 297.5 102.5 304.1 110.6 304.1L145.5 304.1C153.5 304.1 160.1 297.6 160.1 289.5C160.1 288.5 160 287.6 159.8 286.6L144 208L144 141.3L192 150.9L192 208C192 278.7 249.3 336 320 336C390.7 336 448 278.7 448 208L448 150.9L524.7 135.6C535.9 133.3 544 123.4 544 112C544 100.6 535.9 90.7 524.7 88.5L337.3 51zM320 288C275.8 288 240 252.2 240 208L400 208C400 252.2 364.2 288 320 288zM216.1 384.1C154.7 412.3 112 474.3 112 546.3C112 562.7 125.3 576 141.7 576L296 576L296 430L238.6 387C232.1 382.1 223.4 380.8 216 384.2zM344 576L498.3 576C514.7 576 528 562.7 528 546.3C528 474.3 485.3 412.3 423.9 384.2C416.5 380.8 407.8 382.1 401.3 387L343.9 430L343.9 576z"/>
  </symbol>

  <symbol id="icon-tutor" viewBox="0 0 640 640">
    <path fill="currentColor" d="M320 312C253.7 312 200 258.3 200 192C200 125.7 253.7 72 320 72C386.3 72 440 125.7 440 192C440 258.3 386.3 312 320 312zM289.5 368L350.5 368C360.2 368 368 375.8 368 385.5C368 389.7 366.5 393.7 363.8 396.9L336.4 428.9L367.4 544L368 544L402.6 405.5C404.8 396.8 413.7 391.5 422.1 394.7C484 418.3 528 478.3 528 548.5C528 563.6 515.7 575.9 500.6 575.9L139.4 576C124.3 576 112 563.7 112 548.6C112 478.4 156 418.4 217.9 394.8C226.3 391.6 235.2 396.9 237.4 405.6L272 544.1L272.6 544.1L303.6 429L276.2 397C273.5 393.8 272 389.8 272 385.6C272 375.9 279.8 368.1 289.5 368.1z"/>
  </symbol>

  <!-- Usuario / perfil -->
  <symbol id="icon-user" viewBox="0 0 640 640">
    <path fill="currentColor" d="M320 312C386.3 312 440 258.3 440 192C440 125.7 386.3 72 320 72C253.7 72 200 125.7 200 192C200 258.3 253.7 312 320 312zM290.3 368C191.8 368 112 447.8 112 546.3C112 562.7 125.3 576 141.7 576L498.3 576C514.7 576 528 562.7 528 546.3C528 447.8 448.2 368 349.7 368L290.3 368z"/>
  </symbol>

  <!-- ========= -->
  <!-- ENTIDADES -->
  <!-- ========= -->
  <symbol id="icon-educativeCenter" viewBox="0 0 640 640">
    <path fill="currentColor" d="M32 256C32 220.7 60.7 192 96 192L160 192L287.9 76.9C306.2 60.5 333.9 60.5 352.1 76.9L480 192L544 192C579.3 192 608 220.7 608 256L608 512C608 547.3 579.3 576 544 576L96 576C60.7 576 32 547.3 32 512L32 256zM256 440L256 528L384 528L384 440C384 417.9 366.1 400 344 400L296 400C273.9 400 256 417.9 256 440zM144 448C152.8 448 160 440.8 160 432L160 400C160 391.2 152.8 384 144 384L112 384C103.2 384 96 391.2 96 400L96 432C96 440.8 103.2 448 112 448L144 448zM160 304L160 272C160 263.2 152.8 256 144 256L112 256C103.2 256 96 263.2 96 272L96 304C96 312.8 103.2 320 112 320L144 320C152.8 320 160 312.8 160 304zM528 448C536.8 448 544 440.8 544 432L544 400C544 391.2 536.8 384 528 384L496 384C487.2 384 480 391.2 480 400L480 432C480 440.8 487.2 448 496 448L528 448zM544 304L544 272C544 263.2 536.8 256 528 256L496 256C487.2 256 480 263.2 480 272L480 304C480 312.8 487.2 320 496 320L528 320C536.8 320 544 312.8 544 304zM320 320C355.3 320 384 291.3 384 256C384 220.7 355.3 192 320 192C284.7 192 256 220.7 256 256C256 291.3 284.7 320 320 320z"/>
  </symbol>

  <symbol id="icon-company" viewBox="0 0 640 640">
    <path fill="currentColor" d="M192 64C156.7 64 128 92.7 128 128L128 512C128 547.3 156.7 576 192 576L448 576C483.3 576 512 547.3 512 512L512 128C512 92.7 483.3 64 448 64L192 64zM304 416L336 416C353.7 416 368 430.3 368 448L368 528L272 528L272 448C272 430.3 286.3 416 304 416zM224 176C224 167.2 231.2 160 240 160L272 160C280.8 160 288 167.2 288 176L288 208C288 216.8 280.8 224 272 224L240 224C231.2 224 224 216.8 224 208L224 176zM368 160L400 160C408.8 160 416 167.2 416 176L416 208C416 216.8 408.8 224 400 224L368 224C359.2 224 352 216.8 352 208L352 176C352 167.2 359.2 160 368 160zM224 304C224 295.2 231.2 288 240 288L272 288C280.8 288 288 295.2 288 304L288 336C288 344.8 280.8 352 272 352L240 352C231.2 352 224 344.8 224 336L224 304zM368 288L400 288C408.8 288 416 295.2 416 304L416 336C416 344.8 408.8 352 400 352L368 352C359.2 352 352 344.8 352 336L352 304C352 295.2 359.2 288 368 288z"/>
  </symbol>

  <!-- ======= -->
  <!-- TRABAJO -->
  <!-- ======= -->
  <symbol id="icon-briefcase" viewBox="0 0 640 640">
    <path fill="currentColor" d="M264 112L376 112C380.4 112 384 115.6 384 120L384 160L256 160L256 120C256 115.6 259.6 112 264 112zM208 120L208 160L128 160C92.7 160 64 188.7 64 224L64 320L576 320L576 224C576 188.7 547.3 160 512 160L432 160L432 120C432 89.1 406.9 64 376 64L264 64C233.1 64 208 89.1 208 120zM576 368L384 368L384 384C384 401.7 369.7 416 352 416L288 416C270.3 416 256 401.7 256 384L256 368L64 368L64 480C64 515.3 92.7 544 128 544L512 544C547.3 544 576 515.3 576 480L576 368z"/>
  </symbol>

  <symbol id="icon-portfolio" viewBox="0 0 640 640">
    <path fill="currentColor" d="M64 192C64 156.7 92.7 128 128 128L512 128C547.3 128 576 156.7 576 192z"/>
  </symbol>

  <!-- ========== -->
  <!-- NAVEGACION -->
  <!-- ========== -->
  <symbol id="icon-globe" viewBox="0 0 640 640">
    <path fill="currentColor" d="M415.9 344L225 344C227.9 408.5 242.2 467.9 262.5 511.4z"/>
  </symbol>

  <symbol id="icon-link" viewBox="0 0 640 640">
    <path fill="currentColor" d="M451.5 160C434.9 160 418.8 164.5 404.7 172.7z"/>
  </symbol>

  <!-- ========== -->
  <!-- DOCUMENTOS -->
  <!-- ========== -->
  <symbol id="icon-document" viewBox="0 0 640 640">
    <path fill="currentColor" d="M480 576L192 576C139 576 96 533 96 480z"/>
  </symbol>

  <symbol id="icon-file-alt" viewBox="0 0 640 640">
    <path fill="currentColor" d="M128 128C128 92.7 156.7 64 192 64z"/>
  </symbol>

  <!-- candidatura -->
<symbol id="icon-candidacy" viewBox="0 0 640 640">
  <path fill="currentColor" d="M128 128C128 92.7 156.7 64 192 64L341.5 64C358.5 64 374.8 70.7 386.8 82.7L493.3 189.3C505.3 201.3 512 217.6 512 234.6L512 512C512 547.3 483.3 576 448 576L192 576C156.7 576 128 547.3 128 512L128 128zM336 122.5L336 216C336 229.3 346.7 240 360 240L453.5 240L336 122.5zM216 128C202.7 128 192 138.7 192 152C192 165.3 202.7 176 216 176L264 176C277.3 176 288 165.3 288 152C288 138.7 277.3 128 264 128L216 128zM216 224C202.7 224 192 234.7 192 248C192 261.3 202.7 272 216 272L264 272C277.3 272 288 261.3 288 248C288 234.7 277.3 224 264 224L216 224zM286.3 384C275 384 264.4 389.1 257.4 397.9L197.3 473C189 483.3 190.7 498.5 201 506.7C211.3 514.9 226.5 513.3 234.7 502.9L281.8 444.1L297 494.8C300 505 309.4 511.9 320 511.9L424 511.9C437.3 511.9 448 501.2 448 487.9C448 474.6 437.3 463.9 424 463.9L337.9 463.9L321.8 410.3C317.1 394.6 302.7 383.9 286.3 383.9z"/>
</symbol>

  <!-- ============ -->
  <!-- COMUNICACION -->
  <!-- ============ -->
  <symbol id="icon-envelope" viewBox="0 0 640 640">
    <path fill="currentColor" d="M125.4 128C91.5 128 64 155.5 64 189.4C64 190.3 64 191.1 64.1 192L64 192L64 448C64 483.3 92.7 512 128 512L512 512C547.3 512 576 483.3 576 448L576 192L575.9 192C575.9 191.1 576 190.3 576 189.4C576 155.5 548.5 128 514.6 128L125.4 128zM528 256.3L528 448C528 456.8 520.8 464 512 464L128 464C119.2 464 112 456.8 112 448L112 256.3L266.8 373.7C298.2 397.6 341.7 397.6 373.2 373.7L528 256.3zM112 189.4C112 182 118 176 125.4 176L514.6 176C522 176 528 182 528 189.4C528 193.6 526 197.6 522.7 200.1L344.2 335.5C329.9 346.3 310.1 346.3 295.8 335.5L117.3 200.1C114 197.6 112 193.6 112 189.4z"/>
  </symbol>

  <!-- ========= -->
  <!-- SEGURIDAD -->
  <!-- ========= -->
  <!-- Candado / Privado -->
  <symbol id="icon-lock" viewBox="0 0 640 640">
    <path fill="currentColor" d="M256 160L256 224L384 224L384 160z"/>
  </symbol>

  <!-- Seguridad / Protección -->
  <symbol id="icon-shield" viewBox="0 0 640 640">
    <path fill="currentColor" d="M320 64C324.6 64 329.2 65 333.4 66.9L521.8 146.8C543.8 156.1 560.2 177.8 560.1 204C559.6 303.2 518.8 484.7 346.5 567.2C329.8 575.2 310.4 575.2 293.7 567.2C121.3 484.7 80.6 303.2 80.1 204C80 177.8 96.4 156.1 118.4 146.8L306.7 66.9C310.9 65 315.4 64 320 64zM320 130.8L320 508.9C458 442.1 495.1 294.1 496 205.5L320 130.9L320 130.9z"/>
  </symbol>

  <!-- ======= -->
  <!-- SISTEMA -->
  <!-- ======= -->
    <!-- Ajustes -->
  <symbol id="icon-settings" viewBox="0 0 640 640">
    <path fill="currentColor" d="M259.1 73.5C262.1 58.7 275.2 48 290.4 48L350.2 48C365.4 48 378.5 58.7 381.5 73.5L396 143.5C410.1 149.5 423.3 157.2 435.3 166.3L503.1 143.8C517.5 139 533.3 145 540.9 158.2L570.8 210C578.4 223.2 575.7 239.8 564.3 249.9L511 297.3C511.9 304.7 512.3 312.3 512.3 320C512.3 327.7 511.8 335.3 511 342.7L564.4 390.2C575.8 400.3 578.4 417 570.9 430.1L541 481.9C533.4 495 517.6 501.1 503.2 496.3L435.4 473.8C423.3 482.9 410.1 490.5 396.1 496.6L381.7 566.5C378.6 581.4 365.5 592 350.4 592L290.6 592C275.4 592 262.3 581.3 259.3 566.5L244.9 496.6C230.8 490.6 217.7 482.9 205.6 473.8L137.5 496.3C123.1 501.1 107.3 495.1 99.7 481.9L69.8 430.1C62.2 416.9 64.9 400.3 76.3 390.2L129.7 342.7C128.8 335.3 128.4 327.7 128.4 320C128.4 312.3 128.9 304.7 129.7 297.3L76.3 249.8C64.9 239.7 62.3 223 69.8 209.9L99.7 158.1C107.3 144.9 123.1 138.9 137.5 143.7L205.3 166.2C217.4 157.1 230.6 149.5 244.6 143.4L259.1 73.5zM320.3 400C364.5 399.8 400.2 363.9 400 319.7C399.8 275.5 363.9 239.8 319.7 240C275.5 240.2 239.8 276.1 240 320.3C240.2 364.5 276.1 400.2 320.3 400z"/>
  </symbol>

  <symbol id="icon-exit" viewBox="0 0 640 640">
    <path fill="currentColor" d="M224 160C241.7 160 256 145.7 256 128C256 110.3 241.7 96 224 96L160 96C107 96 64 139 64 192L64 448C64 501 107 544 160 544L224 544C241.7 544 256 529.7 256 512C256 494.3 241.7 480 224 480L160 480C142.3 480 128 465.7 128 448L128 192C128 174.3 142.3 160 160 160L224 160zM566.6 342.6C579.1 330.1 579.1 309.8 566.6 297.3L438.6 169.3C426.1 156.8 405.8 156.8 393.3 169.3C380.8 181.8 380.8 202.1 393.3 214.6L466.7 288L256 288C238.3 288 224 302.3 224 320C224 337.7 238.3 352 256 352L466.7 352L393.3 425.4C380.8 437.9 380.8 458.2 393.3 470.7C405.8 483.2 426.1 483.2 438.6 470.7L566.6 342.7z"/>
  </symbol>

  <!-- ======= -->
  <!-- ESTADOS -->
  <!-- ======= -->
  <symbol id="icon-info" viewBox="0 0 640 640">
    <path fill="currentColor" d="M320 576C461.4 576 576 461.4 576 320C576 178.6 461.4 64 320 64C178.6 64 64 178.6 64 320C64 461.4 178.6 576 320 576zM288 224C288 206.3 302.3 192 320 192C337.7 192 352 206.3 352 224C352 241.7 337.7 256 320 256C302.3 256 288 241.7 288 224zM280 288L328 288C341.3 288 352 298.7 352 312L352 400L360 400C373.3 400 384 410.7 384 424C384 437.3 373.3 448 360 448L280 448C266.7 448 256 437.3 256 424C256 410.7 266.7 400 280 400L304 400L304 336L280 336C266.7 336 256 325.3 256 312C256 298.7 266.7 288 280 288z"/>
  </symbol>

  <!-- Advertencia -->
  <symbol id="icon-warning" viewBox="0 0 640 640">
    <path fill="currentColor" d="M320 64C334.7 64 348.2 72.1 355.2 85L571.2 485C577.9 497.4 577.6 512.4 570.4 524.5C563.2 536.6 550.1 544 536 544L104 544C89.9 544 76.8 536.6 69.6 524.5C62.4 512.4 62.1 497.4 68.8 485L284.8 85C291.8 72.1 305.3 64 320 64zM320 416C302.3 416 288 430.3 288 448C288 465.7 302.3 480 320 480C337.7 480 352 465.7 352 448C352 430.3 337.7 416 320 416zM320 224C301.8 224 287.3 239.5 288.6 257.7L296 361.7C296.9 374.2 307.4 384 319.9 384C332.5 384 342.9 374.3 343.8 361.7L351.2 257.7C352.5 239.5 338.1 224 319.8 224z"/>
  </symbol>

  <symbol id="icon-success" viewBox="0 0 640 640">
    <path fill="currentColor" d="M320 576C178.6 576 64 461.4 64 320C64 178.6 178.6 64 320 64C461.4 64 576 178.6 576 320C576 461.4 461.4 576 320 576zM320 112C205.1 112 112 205.1 112 320C112 434.9 205.1 528 320 528C434.9 528 528 434.9 528 320C528 205.1 434.9 112 320 112zM390.7 233.9C398.5 223.2 413.5 220.8 424.2 228.6C434.9 236.4 437.3 251.4 429.5 262.1L307.4 430.1C303.3 435.8 296.9 439.4 289.9 439.9C282.9 440.4 276 437.9 271.1 433L215.2 377.1C205.8 367.7 205.8 352.5 215.2 343.2C224.6 333.9 239.8 333.8 249.1 343.2L285.1 379.2L390.7 234z"/>
  </symbol>

  <symbol id="icon-times-circle" viewBox="0 0 640 640">
    <path fill="currentColor" d="M320 576C461.4 576 576 461.4 576 320z"/>
  </symbol>

  <!-- ===== -->
  <!-- OTROS -->
  <!-- ===== -->
  <symbol id="icon-rocket" viewBox="0 0 640 640">
    <path fill="currentColor" d="M192 384L88.5 384C63.6 384 48.3 356.9z"/>
  </symbol>

  <symbol id="icon-arrowStart" viewBox="0 0 640 640">
    <path fill="currentColor" d="M320 576C461.4 576 576 461.4 576 320C576 178.6 461.4 64 320 64C178.6 64 64 178.6 64 320C64 461.4 178.6 576 320 576zM361 417C351.6 426.4 336.4 426.4 327.1 417C317.8 407.6 317.7 392.4 327.1 383.1L366.1 344.1L216 344.1C202.7 344.1 192 333.4 192 320.1C192 306.8 202.7 296.1 216 296.1L366.1 296.1L327.1 257.1C317.7 247.7 317.7 232.5 327.1 223.2C336.5 213.9 351.7 213.8 361 223.2L441 303.2C450.4 312.6 450.4 327.8 441 337.1L361 417.1z"/>
  </symbol>

   <symbol id="icon-arrowDown" viewBox="0 0 24 24" fill="none" stroke="currentColor" stroke-width="2">
    <path d="M12 5v14M5 12l7 7 7-7" />
  </symbol>

  <symbol id="icon-qrcode" viewBox="0 0 640 640">
    <path fill="currentColor" d="M160 224L224 224L224 160L160 160L160 224zM96 144C96 117.5 117.5 96 144 96L240 96C266.5 96 288 117.5 288 144L288 240C288 266.5 266.5 288 240 288L144 288C117.5 288 96 266.5 96 240L96 144zM160 480L224 480L224 416L160 416L160 480zM96 400C96 373.5 117.5 352 144 352L240 352C266.5 352 288 373.5 288 400L288 496C288 522.5 266.5 544 240 544L144 544C117.5 544 96 522.5 96 496L96 400zM416 160L416 224L480 224L480 160L416 160zM400 96L496 96C522.5 96 544 117.5 544 144L544 240C544 266.5 522.5 288 496 288L400 288C373.5 288 352 266.5 352 240L352 144C352 117.5 373.5 96 400 96zM384 416C366.3 416 352 401.7 352 384C352 366.3 366.3 352 384 352C401.7 352 416 366.3 416 384C416 401.7 401.7 416 384 416zM384 480C401.7 480 416 494.3 416 512C416 529.7 401.7 544 384 544C366.3 544 352 529.7 352 512C352 494.3 366.3 480 384 480zM480 512C480 494.3 494.3 480 512 480C529.7 480 544 494.3 544 512C544 529.7 529.7 544 512 544C494.3 544 480 529.7 480 512zM512 416C494.3 416 480 401.7 480 384C480 366.3 494.3 352 512 352C529.7 352 544 366.3 544 384C544 401.7 529.7 416 512 416zM480 448C480 465.7 465.7 480 448 480C430.3 480 416 465.7 416 448C416 430.3 430.3 416 448 416C465.7 416 480 430.3 480 448z"/>
  </symbol>

  <!-- ====== -->
  <!-- EXTRAS -->
  <!-- ====== -->
  <!-- Reloj / tiempo -->
  <symbol id="icon-clock" viewBox="0 0 640 640">
    <path fill="currentColor" d="M320 576C178.6 576 64 461.4 64 320C64 178.6 178.6 64 320 64C461.4 64 576 178.6 576 320C576 461.4 461.4 576 320 576zM352 192C352 174.3 337.7 160 320 160C302.3 160 288 174.3 288 192L288 320C288 329 292.2 337.5 299.4 343L395.4 407C410 416.8 429.8 412.9 439.6 398.3C449.4 383.7 445.5 363.9 430.9 354.1L352 300.2L352 192z"/>
  </symbol>

  <!-- Estrella (GitHub stars) -->
  <symbol id="icon-star" viewBox="0 0 640 640">
    <path fill="currentColor" d="M316.9 18C311.6 7 300.4 0 288.1 0s-23.4 7-28.8 18L195 150.3 51.4 171.5c-12 1.8-22 10.2-25.7 21.7s-.7 24.2 7.9 32.7L137.8 329 113.2 474.7c-2 12 3 24.2 12.9 31.3s23 8 33.8 2.3l128.3-68.5 128.3 68.5c10.8 5.7 23.9 4.9 33.8-2.3s14.9-19.3 12.9-31.3L438.5 329 542.7 225.9c8.6-8.5 11.7-21.2 7.9-32.7s-13.7-19.9-25.7-21.7L381.2 150.3 316.9 18z"/>
  </symbol>

  <!-- Fork (GitHub forks) -->
  <symbol id="icon-fork" viewBox="0 0 640 640">
    <path fill="currentColor" d="M80 104C80 64.2 112.2 32 152 32s72 32.2 72 72c0 30.1-18.4 56.1-44.8 67.3L184 224c0 26.5 21.5 48 48 48l144 0c26.5 0 48-21.5 48-48l-4.8-52.7C393.4 160.1 376 134.1 376 104c0-39.8 32.2-72 72-72s72 32.2 72 72c0 30.1-18.4 56.1-44.8 67.3L480 224c0 53-43 96-96 96l-48 0 0 52.7c26.4 11.2 44.8 37.2 44.8 67.3c0 39.8-32.2 72-72 72s-72-32.2-72-72c0-30.1 18.4-56.1 44.8-67.3L280 320l-48 0c-53 0-96-43-96-96l-4.8-52.7C104.4 160.1 80 134.1 80 104zM152 80c-13.3 0-24 10.7-24 24s10.7 24 24 24s24-10.7 24-24s-10.7-24-24-24zM464 104c0-13.3-10.7-24-24-24s-24 10.7-24 24s10.7 24 24 24s24-10.7 24-24zM320 464c13.3 0 24-10.7 24-24s-10.7-24-24-24s-24 10.7-24 24s10.7 24 24 24z"/>
  </symbol>

  <!-- Varita / IA autorellenar -->
  <symbol id="icon-sparkles" viewBox="0 0 640 640">
    <path fill="currentColor" d="M327.5 85.2c-4.5-6.2-11.7-9.9-19.5-9.9s-15 3.7-19.5 9.9l-87.5 120.4-146.3 36.3c-7.3 1.8-13.4 7-16.3 14s-2 14.8 2.3 20.9l95.3 127.5-4.7 150.8c-.2 7.6 3.4 14.9 9.6 19.5s14.4 5.7 21.4 3l141.7-54.7 141.8 54.7c7.1 2.7 15 1.6 21.1-2.9s9.8-11.9 9.6-19.5l-4.7-150.8 95.3-127.5c4.3-5.8 5.5-13.4 2.3-20.9s-9-12.2-16.3-14L415 205.5 327.5 85.2zM209.2 340l-56.2-75.1 86.3-21.4c5.3-1.3 9.8-4.8 12.4-9.6l50.3-87.2 50.3 87.2c2.6 4.8 7.2 8.3 12.4 9.6l86.3 21.4L394.8 340H209.2z"/>
  </symbol>

  <!-- Mano saludo / bienvenida -->
  <symbol id="icon-hand-wave" viewBox="0 0 640 640">
    <path fill="currentColor" d="M416 128c0-17.7-14.3-32-32-32s-32 14.3-32 32l0 256c0 17.7 14.3 32 32 32s32-14.3 32-32l0-256zM288 160c0-17.7-14.3-32-32-32s-32 14.3-32 32l0 224c0 17.7 14.3 32 32 32s32-14.3 32-32l0-224zM160 288c0-17.7-14.3-32-32-32s-32 14.3-32 32l0 96c0 70.7 57.3 128 128 128l96 0c141.4 0 256-114.6 256-256L576 192c0-17.7-14.3-32-32-32s-32 14.3-32 32l0 96-32 0 0-192c0-17.7-14.3-32-32-32s-32 14.3-32 32l0 192-32 0 0-256c0-17.7-14.3-32-32-32s-32 14.3-32 32l0 256-32 0 0-160z"/>
  </symbol>

  <!-- Movil / compartir QR -->
  <symbol id="icon-mobile" viewBox="0 0 640 640">
    <path fill="currentColor" d="M128 0C92.7 0 64 28.7 64 64L64 448c0 35.3 28.7 64 64 64l256 0c35.3 0 64-28.7 64-64l0-384c0-35.3-28.7-64-64-64L128 0zM256 384c17.7 0 32 14.3 32 32s-14.3 32-32 32s-32-14.3-32-32s14.3-32 32-32z"/>
  </symbol>

  <!-- Check simple (sin circulo) -->
  <symbol id="icon-check" viewBox="0 0 640 640">
    <path fill="currentColor" d="M438.6 105.4c12.5 12.5 12.5 32.8 0 45.3l-256 256c-12.5 12.5-32.8 12.5-45.3 0l-128-128c-12.5-12.5-12.5-32.8 0-45.3s32.8-12.5 45.3 0L160 338.7 393.4 105.4c12.5-12.5 32.8-12.5 45.3 0z"/>
  </symbol>

  <!-- Exito / celebration -->
  <symbol id="icon-circle-check" viewBox="0 0 640 640">
    <path fill="currentColor" d="M256 512A256 256 0 1 0 256 0a256 256 0 1 0 0 512zM369 209L241 337l-48-48c-9.4-9.4-24.6-9.4-33.9 0s-9.4 24.6 0 33.9l64 64c9.4 9.4 24.6 9.4 33.9 0L402.7 242.9c9.4-9.4 9.4-24.6 0-33.9s-24.6-9.4-33.9 0z"/>
  </symbol>

  <!-- ============== -->
  <!-- REDES SOCIALES -->
  <!-- ============== -->
  <!-- GitHub -->
  <symbol id="icon-github" viewBox="0 0 16 16">
    <path fill="currentColor" d="M8 0C3.58 0 0 3.58 0 8a8 8 0 005.47 7.59c.4.07.55-.17.55-.38
    0-.19-.01-.82-.01-1.49-2.01.37-2.53-.49-2.69-.94-.09-.23-.48-.94-.82-1.13
    -.28-.15-.68-.52-.01-.53.63-.01 1.08.58 1.23.82.72 1.21 1.87.87 2.33.66
    .07-.52.28-.87.51-1.07-1.78-.2-3.64-.89-3.64-3.95
    0-.87.31-1.59.82-2.15-.08-.2-.36-1.02.08-2.12 0 0 .67-.21 2.2.82
    .64-.18 1.32-.27 2-.27s1.36.09 2 .27c1.53-1.04 2.2-.82 2.2-.82
    .44 1.1.16 1.92.08 2.12.51.56.82 1.27.82 2.15
    0 3.07-1.87 3.75-3.65 3.95.29.25.54.73.54 1.48
    0 1.07-.01 1.93-.01 2.2 0 .21.15.46.55.38A8.01 8.01 0 0016 8
    c0-4.42-3.58-8-8-8z"/>
  </symbol>

  <!-- Google -->
  <symbol id="icon-google" viewBox="-0.5 0 48 48">
    <g fill="currentColor" fill-rule="evenodd">
      <g transform="translate(-401 -860)">
        <g transform="translate(401 860)">
          <path d="M9.82727273,24 C9.82727273,22.4757333 10.0804318,21.0144 10.5322727,19.6437333 L2.62345455,13.6042667 C1.08206818,16.7338667 0.213636364,20.2602667 0.213636364,24 C0.213636364,27.7365333 1.081,31.2608 2.62025,34.3882667 L10.5247955,28.3370667 C10.0772273,26.9728 9.82727273,25.5168 9.82727273,24"
                fill="#FBBC05"/>
          <path d="M23.7136364,10.1333333 C27.025,10.1333333 30.0159091,11.3066667 32.3659091,13.2266667 L39.2022727,6.4 C35.0363636,2.77333333 29.6954545,0.533333333 23.7136364,0.533333333 C14.4268636,0.533333333 6.44540909,5.84426667 2.62345455,13.6042667 L10.5322727,19.6437333 C12.3545909,14.112 17.5491591,10.1333333 23.7136364,10.1333333"
                fill="#EB4335"/>
          <path d="M23.7136364,37.8666667 C17.5491591,37.8666667 12.3545909,33.888 10.5322727,28.3562667 L2.62345455,34.3946667 C6.44540909,42.1557333 14.4268636,47.4666667 23.7136364,47.4666667 C29.4455,47.4666667 34.9177955,45.4314667 39.0249545,41.6181333 L31.5177727,35.8144 C29.3995682,37.1488 26.7323182,37.8666667 23.7136364,37.8666667"
                fill="#34A853"/>
          <path d="M46.1454545,24 C46.1454545,22.6133333 45.9318182,21.12 45.6113636,19.7333333 L23.7136364,19.7333333 L23.7136364,28.8 L36.3181818,28.8 C35.6879545,31.8912 33.9724545,34.2677333 31.5177727,35.8144 L39.0249545,41.6181333 C43.3393409,37.6138667 46.1454545,31.6490667 46.1454545,24"
                fill="#4285F4"/>
        </g>
      </g>
    </g>
  </symbol>


  <symbol id="icon-linkedin" viewBox="0 0 640 640">
    <path fill="currentColor" d="M196.3 512L103.4 512L103.4 212.9L196.3 212.9L196.3 512zM149.8 172.1C120.1 172.1 96 147.5 96 117.8C96 103.5 101.7 89.9 111.8 79.8C121.9 69.7 135.6 64 149.8 64C164 64 177.7 69.7 187.8 79.8C197.9 89.9 203.6 103.6 203.6 117.8C203.6 147.5 179.5 172.1 149.8 172.1zM543.9 512L451.2 512L451.2 366.4C451.2 331.7 450.5 287.2 402.9 287.2C354.6 287.2 347.2 324.9 347.2 363.9L347.2 512L254.4 512L254.4 212.9L343.5 212.9L343.5 253.7L344.8 253.7C357.2 230.2 387.5 205.4 432.7 205.4C526.7 205.4 544 267.3 544 347.7L544 512L543.9 512z"/>
  </symbol>

  <symbol id="icon-instagram" viewBox="0 0 640 640">
    <path fill="currentColor" d="M320.3 205C256.8 204.8 205.2 256.2 205 319.7C204.8 383.2 256.2 434.8 319.7 435C383.2 435.2 434.8 383.8 435 320.3C435.2 256.8 383.8 205.2 320.3 205zM319.7 245.4C360.9 245.2 394.4 278.5 394.6 319.7C394.8 360.9 361.5 394.4 320.3 394.6C279.1 394.8 245.6 361.5 245.4 320.3C245.2 279.1 278.5 245.6 319.7 245.4zM413.1 200.3C413.1 185.5 425.1 173.5 439.9 173.5C454.7 173.5 466.7 185.5 466.7 200.3C466.7 215.1 454.7 227.1 439.9 227.1C425.1 227.1 413.1 215.1 413.1 200.3zM542.8 227.5C541.1 191.6 532.9 159.8 506.6 133.6C480.4 107.4 448.6 99.2 412.7 97.4C375.7 95.3 264.8 95.3 227.8 97.4C192 99.1 160.2 107.3 133.9 133.5C107.6 159.7 99.5 191.5 97.7 227.4C95.6 264.4 95.6 375.3 97.7 412.3C99.4 448.2 107.6 480 133.9 506.2C160.2 532.4 191.9 540.6 227.8 542.4C264.8 544.5 375.7 544.5 412.7 542.4C448.6 540.7 480.4 532.5 506.6 506.2C532.8 480 541 448.2 542.8 412.3C544.9 375.3 544.9 264.5 542.8 227.5zM495 452C487.2 471.6 472.1 486.7 452.4 494.6C422.9 506.3 352.9 503.6 320.3 503.6C287.7 503.6 217.6 506.2 188.2 494.6C168.6 486.8 153.5 471.7 145.6 452C133.9 422.5 136.6 352.5 136.6 319.9C136.6 287.3 134 217.2 145.6 187.8C153.4 168.2 168.5 153.1 188.2 145.2C217.7 133.5 287.7 136.2 320.3 136.2C352.9 136.2 423 133.6 452.4 145.2C472 153 487.1 168.1 495 187.8C506.7 217.3 504 287.3 504 319.9C504 352.5 506.7 422.6 495 452z"/>
  </symbol>

  <symbol id="icon-twitter" viewBox="0 0 640 640">
    <path fill="currentColor" d="M453.2 112L523.8 112L369.6 288.2L551 528L409 528L297.7 382.6L170.5 528L99.8 528L264.7 339.5L90.8 112L236.4 112L336.9 244.9L453.2 112zM428.4 485.8L467.5 485.8L215.1 152L173.1 152L428.4 485.8z"/>
  </symbol>

  <!-- ============= -->
  <!-- ICONOS EXTRAS -->
  <!-- ============= -->

  <!-- Libro  -->
  <symbol id="icon-book" viewBox="0 0 640 640">
    <path fill="currentColor" d="M96 96C96 60.7 124.7 32 160 32H512c35.3 0 64 28.7 64 64V416c0 35.3-28.7 64-64 64H160c-35.3 0-64-28.7-64-64V96zm128 32c-17.7 0-32 14.3-32 32s14.3 32 32 32H416c17.7 0 32-14.3 32-32s-14.3-32-32-32H224zm0 96c-17.7 0-32 14.3-32 32s14.3 32 32 32H416c17.7 0 32-14.3 32-32s-14.3-32-32-32H224zm0 96c-17.7 0-32 14.3-32 32s14.3 32 32 32H320c17.7 0 32-14.3 32-32s-14.3-32-32-32H224zM64 536c0-13.3 10.7-24 24-24H552c13.3 0 24 10.7 24 24s-10.7 24-24 24H88c-13.3 0-24-10.7-24-24z"/>
  </symbol>

  <!-- Cohete completo  -->
  <symbol id="icon-rocket" viewBox="0 0 512 512">
    <path fill="currentColor" d="M156.6 384.9L125.7 351.7c-8.5-9.1-8.1-23.3 .9-31.8l65.1-61.7c-8.3-24.3-12.7-50.1-12.7-76.5 0-124.2 100.4-224.6 224.6-224.6 11.1 0 21.9 .8 32.5 2.3l-33.8 43.9c-15.9 10.8-26.4 28.7-26.4 49.2 0 32.9 26.7 59.6 59.6 59.6 20.4 0 38.3-10.5 49.1-26.3l43.9-33.9c1.5 10.6 2.3 21.5 2.3 32.6 0 124.2-100.4 224.6-224.6 224.6-26.4 0-52.2-4.4-76.5-12.7L156.6 384.9zM255.8 432l-56.2-56.2 65.1-61.7c16.5 4.3 33.7 6.6 51.4 6.6 105.3 0 192-86.7 192-192 0-5.3-.2-10.5-.6-15.7l-23.7 18.3c-8.2 13.6-22 23.5-38.3 26.7-5.8 1.1-11.9 1.7-18.1 1.7-44.7 0-80.9-36.2-80.9-80.9 0-6.2 .7-12.3 1.9-18.2 3.3-16.5 13.3-30.4 27-38.6L392.7 .4C386.9 .1 381 0 375.1 0 241.9 0 133.1 108.8 133.1 242c0 29.3 5.2 57.4 14.8 83.5L68.8 386.6c-22.7 21.5-23.5 57.3-1.7 79.8l32.9 34.8c21.5 22.7 57.3 23.5 79.8 1.7l75-70.9zM176 480a32 32 0 1 0 -64 0 32 32 0 1 0 64 0z"/>
  </symbol>

  <!-- Escuela / centro educativo  -->
  <symbol id="icon-school" viewBox="0 0 640 640">
    <path fill="currentColor" d="M320 32c17.7 0 32 14.3 32 32V96h96c17.7 0 32 14.3 32 32s-14.3 32-32 32H192c-17.7 0-32-14.3-32-32s14.3-32 32-32h96V64c0-17.7 14.3-32 32-32zM64 224H576c35.3 0 64 28.7 64 64V512c0 35.3-28.7 64-64 64H64c-35.3 0-64-28.7-64-64V288c0-35.3 28.7-64 64-64zM256 384v96c0 17.7 14.3 32 32 32h64c17.7 0 32-14.3 32-32V384c0-17.7-14.3-32-32-32H288c-17.7 0-32 14.3-32 32zM128 320c-17.7 0-32 14.3-32 32v32c0 17.7 14.3 32 32 32h32c17.7 0 32-14.3 32-32V352c0-17.7-14.3-32-32-32H128zm352 32v32c0 17.7 14.3 32 32 32h32c17.7 0 32-14.3 32-32V352c0-17.7-14.3-32-32-32H512c-17.7 0-32 14.3-32 32z"/>
  </symbol>

  <!-- Confeti / registro exitoso  -->
  <symbol id="icon-party" viewBox="0 0 640 640">
    <path fill="currentColor" d="M32 480c0 17.7 14.3 32 32 32s32-14.3 32-32V360.2L277.6 494.2c9.8 7.6 24 5.8 31.6-4 7.6-9.8 5.8-24-4-31.6L131 335.8c5.9-1.2 11.4-4.2 15.6-8.9L365.3 87.4c28.2-32.2 79.3-26.1 99.2 12.2l2 3.9c14.5 28.9 8.2 63.6-15.4 85.6l-50 45.4c-12.9 11.7-13.9 31.7-2.2 44.6s31.7 13.9 44.6 2.2l50-45.4c44-39.9 56.4-103.4 30.3-156.9l-2-3.9C483.2 7.6 382.5-7.2 320.9 64L102.2 303.6C94.6 312.3 89.8 323 89 334.4L64 358.5V128H32V480zM464 400a48 48 0 1 1 96 0 48 48 0 1 1 -96 0zm-224 48a32 32 0 1 1 64 0 32 32 0 1 1 -64 0zm288-176a32 32 0 1 1 0 64 32 32 0 1 1 0-64z"/>
  </symbol>

  <!-- Edificio / empresa  -->
  <symbol id="icon-building" viewBox="0 0 640 640">
    <path fill="currentColor" d="M64 32C46.3 32 32 46.3 32 64V576H224V512c0-17.7 14.3-32 32-32H320c17.7 0 32 14.3 32 32v64H544V64c0-17.7-14.3-32-32-32H64zM160 160c0-17.7 14.3-32 32-32h32c17.7 0 32 14.3 32 32v32c0 17.7-14.3 32-32 32H192c-17.7 0-32-14.3-32-32V160zm128 0c0-17.7 14.3-32 32-32h32c17.7 0 32 14.3 32 32v32c0 17.7-14.3 32-32 32H320c-17.7 0-32-14.3-32-32V160zm-96 96h32c17.7 0 32 14.3 32 32v32c0 17.7-14.3 32-32 32H192c-17.7 0-32-14.3-32-32V288c0-17.7 14.3-32 32-32zm96 0h32c17.7 0 32 14.3 32 32v32c0 17.7-14.3 32-32 32H320c-17.7 0-32-14.3-32-32V288c0-17.7 14.3-32 32-32zm-96 96h32c17.7 0 32 14.3 32 32v32c0 17.7-14.3 32-32 32H192c-17.7 0-32-14.3-32-32V384c0-17.7 14.3-32 32-32zm96 0h32c17.7 0 32 14.3 32 32v32c0 17.7-14.3 32-32 32H320c-17.7 0-32-14.3-32-32V384c0-17.7 14.3-32 32-32z"/>
  </symbol>

  <!-- Reloj de arena  -->
  <symbol id="icon-hourglass" viewBox="0 0 640 640">
    <path fill="currentColor" d="M0 24C0 10.7 10.7 0 24 0H488c13.3 0 24 10.7 24 24s-10.7 24-24 24H24C10.7 48 0 37.3 0 24zM0 488c0-13.3 10.7-24 24-24H488c13.3 0 24 10.7 24 24s-10.7 24-24 24H24c-13.3 0-24-10.7-24-24zM80 64H432V196.7c0 25.4-10.1 49.8-28.1 67.8L324.3 344l79.6 79.5c18 18 28.1 42.4 28.1 67.8V544H80V491.3c0-25.4 10.1-49.8 28.1-67.8L188.3 344l-80.2-79.5C90.1 246.5 80 222.1 80 196.7V64zm48 48V196.7c0 12.7 5.1 24.9 14.1 33.9L240 328.5V416h32V328.5L369.9 230.6c9-9 14.1-21.2 14.1-33.9V112H128z"/>
  </symbol>

  <!-- Apretón de manos -->
  <symbol id="icon-handshake" viewBox="0 0 640 640">
    <path fill="currentColor" d="M300.9 149.2L184.3 278.8C179.7 283.9 179.9 291.8 184.8 296.7C215.3 327.2 264.8 327.2 295.3 296.7L327.1 264.9C331.3 260.7 336.6 258.4 342 258C348.8 257.4 355.8 259.7 361 264.9L537.6 440L608 384L608 96L496 160L472.2 144.1C456.4 133.6 437.9 128 418.9 128L348.5 128C347.4 128 346.2 128 345.1 128.1C328.2 129 312.3 136.6 300.9 149.2zM148.6 246.7L255.4 128L215.8 128C190.3 128 165.9 138.1 147.9 156.1L144 160L32 96L32 384L188.4 514.3C211.4 533.5 240.4 544 270.3 544L286 544L279 537C269.6 527.6 269.6 512.4 279 503.1C288.4 493.8 303.6 493.7 312.9 503.1L353.9 544.1L362.9 544.1C382 544.1 400.7 539.8 417.7 531.8L391 505C381.6 495.6 381.6 480.4 391 471.1C400.4 461.8 415.6 461.7 424.9 471.1L456.9 503.1L474.4 485.6C483.3 476.7 485.9 463.8 482 452.5L344.1 315.7L329.2 330.6C279.9 379.9 200.1 379.9 150.8 330.6C127.8 307.6 126.9 270.7 148.6 246.6z"/>
  </symbol>

  <!-- Ojo  -->
  <symbol id="icon-eye" viewBox="0 0 640 640">
    <path fill="currentColor" d="M288 80c-65.2 0-118.8 29.6-159.9 67.7C89.6 183.5 63 226 49.4 256c13.6 30 40.2 72.5 78.6 108.3C169.2 402.4 222.8 432 288 432s118.8-29.6 159.9-67.7C486.4 328.5 513 286 526.6 256c-13.6-30-40.2-72.5-78.6-108.3C406.8 109.6 353.2 80 288 80zM95.4 112.6C142.5 68.8 207.2 32 288 32s145.5 36.8 192.6 80.6c46.8 43.5 78.1 95.4 93 131.1c3.3 7.9 3.3 16.7 0 24.6c-14.9 35.7-46.2 87.7-93 131.1C433.5 443.2 368.8 480 288 480s-145.5-36.8-192.6-80.6C48.6 356 17.3 304 2.5 268.3c-3.3-7.9-3.3-16.7 0-24.6C17.3 208 48.6 156 95.4 112.6zM288 336c44.2 0 80-35.8 80-80s-35.8-80-80-80c-.7 0-1.3 0-2 0c1.3 5.1 2 10.5 2 16c0 35.3-28.7 64-64 64c-5.5 0-10.9-.7-16-2c0 .7 0 1.3 0 2c0 44.2 35.8 80 80 80zm0-208a128 128 0 1 1 0 256 128 128 0 1 1 0-256z"/>
  </symbol>

  <!-- Ojo tachado -->
  <symbol id="icon-eye-slash" viewBox="0 0 640 640">
    <path fill="currentColor" d="M38.8 5.1C28.4-3.1 13.3-1.2 5.1 9.2S-1.2 34.7 9.2 42.9l592 464c10.4 8.2 25.5 6.3 33.7-4.1s6.3-25.5-4.1-33.7L525.6 386.7c39.6-40.6 66.4-86.1 79.9-118.4c3.3-7.9 3.3-16.7 0-24.6c-14.9-35.7-46.2-87.7-93-131.1C465.5 68.8 400.8 32 320 32c-68.2 0-125 26.3-169.3 60.8L38.8 5.1zM223.1 149.5C248.6 126.2 282.7 112 320 112c79.5 0 144 64.5 144 144c0 24.9-6.3 48.3-17.4 68.7L408 294.5c5.2-10.5 8-22.2 8-34.5c0-44.2-35.8-80-80-80c-12.3 0-24 2.8-34.5 7.8L223.1 149.5zm223.1 298L400 406.4c-26.4 7.8-54.7 12-84 12c-79.5 0-144-64.5-144-144c0-29.3 4.1-57.6 11.9-84L143.5 145.3C103.7 180.9 72.3 226.7 56.4 261.4c-3.3 7.5-3.3 16 0 23.5c14.9 35.7 46.2 87.7 93 131.1C196.5 459.2 261.2 496 340 496c48.5 0 93.2-14.9 131.2-38.5z"/>
  </symbol>

  <!-- Candado con llave / seguridad email  -->
  <symbol id="icon-lock-keyhole" viewBox="0 0 640 640">
    <path fill="currentColor" d="M144 144v48H304V144c0-44.2-35.8-80-80-80s-80 35.8-80 80zM80 192V144C80 64.5 144.5 0 224 0s144 64.5 144 144v48h16c35.3 0 64 28.7 64 64V448c0 35.3-28.7 64-64 64H64c-35.3 0-64-28.7-64-64V256c0-35.3 28.7-64 64-64H80zm136 104c0-13.3-10.7-24-24-24s-24 10.7-24 24v56c0 13.3 10.7 24 24 24s24-10.7 24-24V296z"/>
  </symbol>

  <!-- QR / compartir  -->
  <symbol id="icon-share-mobile" viewBox="0 0 640 640">
    <path fill="currentColor" d="M352 96c0-17.7-14.3-32-32-32s-32 14.3-32 32V256H160c-17.7 0-32 14.3-32 32s14.3 32 32 32H288V480c0 17.7 14.3 32 32 32s32-14.3 32-32V320H480c17.7 0 32-14.3 32-32s-14.3-32-32-32H352V96zm-224 336H64c-17.7 0-32 14.3-32 32s14.3 32 32 32H128c17.7 0 32-14.3 32-32s-14.3-32-32-32zm352 0c-17.7 0-32 14.3-32 32s14.3 32 32 32h64c17.7 0 32-14.3 32-32s-14.3-32-32-32H480z"/>
  </symbol>


</svg>